<svg width="1400" height="900" viewBox="0 0 1400 900" fill="none" xmlns="http://www.w3.org/2000/svg">
<rect x="912.438" y="260.409" width="10.08" height="15" transform="rotate(-104 912.438 260.409)" fill="#F54721" fill-opacity="0.6"/>
<rect x="1298" y="10" width="50.08" height="12" transform="rotate(86 1298 10)" fill="#FFED36"/>
<rect x="477" y="89" width="44.08" height="15" transform="rotate(-175 477 89)" fill="#03A3F5"/>
<rect x="879.863" y="134.828" width="33.08" height="14" transform="rotate(171 879.863 134.828)" fill="#9AF5FC" fill-opacity="0.65"/>
<rect x="1034" y="407" width="13.08" height="18" transform="rotate(167 1034 407)" fill="#9DED1A" fill-opacity="0.35"/>
<rect x="1301.21" y="585.751" width="15.08" height="13" transform="rotate(-138 1301.21 585.751)" fill="#480CA7" fill-opacity="0.35"/>
<rect x="558" y="33" width="25.08" height="15" transform="rotate(-129 558 33)" fill="#755FFE" fill-opacity="0.45"/>
<rect x="1299" y="775" width="23.08" height="9" transform="rotate(-125 1299 775)" fill="#FC9E1C"/>
<rect x="429" y="22" width="38.08" height="18" transform="rotate(-51 429 22)" fill="#4BC8EF" fill-opacity="0.65"/>
<circle cx="1311.1" cy="506.1" r="5.1" fill="#DCBCFA" fill-opacity="0.85"/>
<circle cx="357.6" cy="656.6" r="4.6" fill="#4BC8EF" fill-opacity="0.75"/>
<circle cx="1110.1" cy="193.1" r="10.1" fill="#BA3E03" fill-opacity="0.65"/>
<circle cx="687.6" cy="804.6" r="8.6" fill="#4BC8EF" fill-opacity="0.9"/>
<circle cx="110.6" cy="300.6" r="10.6" fill="#9AF5FC" fill-opacity="0.75"/>
<circle cx="1152.6" cy="636.6" r="5.6" fill="#03A3F5" fill-opacity="0.45"/>
<circle cx="150.6" cy="795.6" r="8.6" fill="#480CA7" fill-opacity="0.35"/>
<circle cx="715.1" cy="57.1" r="4.1" fill="#480CA7" fill-opacity="0.85"/>
<circle cx="911.6" cy="871.6" r="10.6" fill="#4BC8EF" fill-opacity="0.35"/>
<circle cx="330.597" cy="481.6" r="10.6" fill="#9DED1A"/>
<circle cx="1237.6" cy="8.6" r="7.6" fill="#BA3E03"/>
<circle cx="169.6" cy="697.6" r="9.6" fill="#FF21FB"/>
<circle cx="593.1" cy="124.1" r="9.1" fill="#9DED1A" fill-opacity="0.45"/>
<path d="M1250.54 176.844L1244.23 188.223L1232.85 181.915L1239.16 170.536L1250.54 176.844Z" fill="#4BC8EF" fill-opacity="0.9"/>
<path d="M1080.21 559.22L1081.45 582.916L1060.31 572.143L1080.21 559.22Z" fill="#C9FCBE"/>
<path d="M844.79 870.85L855.236 868.051L861.127 877.121L854.321 885.527L844.224 881.651L844.79 870.85Z" fill="#F54721" fill-opacity="0.85"/>
<path d="M1001.99 458.647L986.638 465.48L988.394 448.772L1001.99 458.647Z" fill="#F54721" fill-opacity="0.9"/>
<path d="M241.51 855.538L242.752 831.842L262.653 844.766L241.51 855.538Z" fill="#03A3F5" fill-opacity="0.75"/>
<path d="M11.114 170.459L6.76893 153.032L24.1959 148.687L28.541 166.114L11.114 170.459Z" fill="#FC9E1C" fill-opacity="0.65"/>
<path d="M983.489 50.5959L979.481 60.5167L968.885 62.0059L962.297 53.5742L966.306 43.6533L976.902 42.1642L983.489 50.5959Z" fill="#F54721" fill-opacity="0.65"/>
<path d="M848.605 750.205L854.589 755.05L853.385 762.656L846.196 765.415L840.212 760.569L841.417 752.964L848.605 750.205Z" fill="#03A3F5" fill-opacity="0.9"/>
<path d="M143.828 516.708L133.949 514.245L136.412 504.365L146.292 506.828L143.828 516.708Z" fill="#FC9E1C" fill-opacity="0.9"/>
<path d="M1374.49 225.983L1385.99 233.455L1378.52 244.959L1367.02 237.488L1374.49 225.983Z" fill="#480CA7" fill-opacity="0.45"/>
<path d="M220.51 342.809L230.593 354.007L215.853 357.14L220.51 342.809Z" fill="#F62584" fill-opacity="0.85"/>
<path d="M331.038 146.855L337.833 140.223L337.221 130.747L343.853 137.542L353.328 136.93L346.534 143.563L347.145 153.038L340.513 146.243L331.038 146.855Z" fill="#DCBCFA" fill-opacity="0.75"/>
<path d="M65.4661 587.799L59.7632 587.592L59.3723 593.286L56.6995 588.244L51.5736 590.752L54.6037 585.916L49.8687 582.731L55.5716 582.937L55.9625 577.244L58.6353 582.286L63.7612 579.778L60.7311 584.614L65.4661 587.799Z" fill="#F54721"/>
<path d="M1385.68 306.456L1385.57 300.136L1379.53 298.288L1385.5 296.23L1385.39 289.911L1389.2 294.959L1395.17 292.901L1391.55 298.079L1395.35 303.127L1389.31 301.279L1385.68 306.456Z" fill="#DCBCFA" fill-opacity="0.65"/>
<path d="M734.006 362.002L728.115 355.058L719.01 355.009L725.954 349.119L726.002 340.013L731.893 346.957L740.998 347.006L734.054 352.896L734.006 362.002Z" fill="#FC9E1C" fill-opacity="0.75"/>
<path d="M360.168 697.774L365.132 694.307L361.828 689.234L367.312 691.799L370.054 686.401L370.574 692.434L376.62 692.109L371.656 695.576L374.96 700.649L369.475 698.084L366.734 703.482L366.213 697.45L360.168 697.774Z" fill="#C9FCBE" fill-opacity="0.75"/>
<path d="M803.998 651.994L812.474 654.585L817.558 647.324L817.713 656.187L826.189 658.778L817.809 661.664L817.963 670.527L812.629 663.448L804.248 666.333L809.332 659.073L803.998 651.994Z" fill="#F62584" fill-opacity="0.35"/>
<path d="M1046.56 647.502L1042.47 657.77L1047.61 667.556L1037.34 663.471L1027.55 668.607L1031.64 658.338L1026.5 648.553L1036.77 652.638L1046.56 647.502Z" fill="#755FFE" fill-opacity="0.85"/>
<path d="M456.131 811.867L450.428 811.66L450.037 817.353L447.365 812.311L442.239 814.819L445.269 809.984L440.534 806.799L446.237 807.005L446.628 801.312L449.3 806.354L454.426 803.846L451.396 808.681L456.131 811.867Z" fill="#DCBCFA" fill-opacity="0.6"/>
<path d="M550.865 697.283L545.388 692.848L539.477 696.686L542.003 690.107L536.526 685.672L543.564 686.041L546.09 679.461L547.914 686.269L554.951 686.637L549.041 690.476L550.865 697.283Z" fill="#BA3E03" fill-opacity="0.75"/>
<path d="M1138.78 903.698L1130.24 905.975L1132.24 914.584L1126 908.327L1119.54 914.362L1121.84 905.828L1113.38 903.255L1121.92 900.978L1119.92 892.369L1126.16 898.626L1132.62 892.59L1130.32 901.125L1138.78 903.698Z" fill="#BA3E03" fill-opacity="0.6"/>
<path d="M863.491 177.278L867.038 173.74L863.616 170.08L868.455 171.382L869.914 166.589L871.205 171.43L876.085 170.297L872.538 173.836L875.96 177.496L871.121 176.193L869.662 180.987L868.372 176.145L863.491 177.278Z" fill="#C9FCBE" fill-opacity="0.75"/>
<path d="M202.54 156.74L201.445 150.058L195.66 146.54L202.342 145.445L205.86 139.66L206.955 146.342L212.74 149.86L206.058 150.955L202.54 156.74Z" fill="#BA3E03" fill-opacity="0.65"/>
<path d="M437.252 49.2817L444.231 50.2625L447.32 43.9283L448.544 50.8687L455.523 51.8495L449.301 55.1581L450.524 62.0985L445.455 57.2029L439.232 60.5115L442.322 54.1773L437.252 49.2817Z" fill="#F62584"/>
<path d="M387.402 438.122L390.53 442.76L395.908 441.218L392.463 445.627L395.592 450.265L390.335 448.351L386.891 452.76L387.086 447.169L381.829 445.255L387.206 443.713L387.402 438.122Z" fill="#FFED36" fill-opacity="0.35"/>
<path d="M1072.75 125.95L1071.76 132.193L1077.39 135.062L1071.15 136.051L1070.16 142.294L1067.29 136.662L1061.05 137.651L1065.52 133.182L1062.65 127.55L1068.28 130.419L1072.75 125.95Z" fill="#C9FCBE"/>
<path d="M398.9 311.393L391.04 309.287L386.608 316.112L386.182 307.985L378.322 305.879L385.919 302.963L385.493 294.837L390.614 301.161L398.211 298.245L393.779 305.069L398.9 311.393Z" fill="#FC9E1C" fill-opacity="0.6"/>
<path d="M1174.77 482.802L1176.66 489.708L1183.13 492.769L1176.23 494.659L1173.16 501.132L1171.27 494.226L1164.8 491.165L1171.71 489.275L1174.77 482.802Z" fill="#FFED36" fill-opacity="0.6"/>
</svg>
